<svg xmlns="http://www.w3.org/2000/svg" viewBox="0 0 60 60"><defs><style>.cls-1{fill:#ffdc00;}.cls-2{fill:#fff;}</style></defs><title>Asset 3</title><g id="Layer_2" data-name="Layer 2"><g id="Layer_1-2" data-name="Layer 1"><rect class="cls-1" width="60" height="60"/><path class="cls-2" d="M45.07,19.2H14.8a1.76,1.76,0,0,0-1.71,1.62L10.8,41.76a.34.34,0,0,0,.61.27l3.05-3.94a1.69,1.69,0,0,1,1.33-.67H43a1.76,1.76,0,0,0,1.71-1.55l2.07-14.59A1.79,1.79,0,0,0,45.07,19.2ZM39.76,33.82H18.22a1.21,1.21,0,1,1,0-2.42H39.76a1.21,1.21,0,1,1,0,2.42Zm0-4.4H18.22a1.21,1.21,0,1,1,0-2.42H39.76a1.21,1.21,0,0,1,0,2.42Zm0-4.4H18.22a1.21,1.21,0,1,1,0-2.42H39.76a1.21,1.21,0,0,1,0,2.42Z"/></g></g></svg>