<svg xmlns="http://www.w3.org/2000/svg" viewBox="0 0 76 76"><defs><style>.cls-1{fill:#ffdc00;}.cls-2{fill:#fff;}</style></defs><title>Asset 3</title><g id="Layer_2" data-name="Layer 2"><g id="Layer_1-2" data-name="Layer 1"><rect class="cls-1" width="76" height="76"/><path class="cls-2" d="M57.09,24.32H18.74a2.23,2.23,0,0,0-2.17,2L13.68,52.9a.44.44,0,0,0,.77.35l3.87-5A2.14,2.14,0,0,1,20,47.42H54.47a2.23,2.23,0,0,0,2.16-2L59.26,27A2.27,2.27,0,0,0,57.09,24.32ZM50.37,42.84H23.08a1.53,1.53,0,0,1,0-3.06H50.37a1.53,1.53,0,0,1,0,3.06Zm0-5.57H23.08a1.53,1.53,0,1,1,0-3.06H50.37a1.53,1.53,0,1,1,0,3.06Zm0-5.57H23.08a1.53,1.53,0,1,1,0-3.06H50.37a1.53,1.53,0,1,1,0,3.06Z"/></g></g></svg>