<svg xmlns="http://www.w3.org/2000/svg" viewBox="0 0 83.5 83.5"><defs><style>.cls-1{fill:#ffdc00;}.cls-2{fill:#fff;}</style></defs><title>Asset 3</title><g id="Layer_2" data-name="Layer 2"><g id="Layer_1-2" data-name="Layer 1"><rect class="cls-1" width="83.5" height="83.5"/><path class="cls-2" d="M62.73,26.72H20.59A2.45,2.45,0,0,0,18.2,29L15,58.12a.48.48,0,0,0,.85.38L20.13,53A2.35,2.35,0,0,1,22,52.1H59.85a2.45,2.45,0,0,0,2.37-2.16l2.88-20.3A2.5,2.5,0,0,0,62.73,26.72ZM55.34,47.07h-30a1.68,1.68,0,0,1,0-3.37h30a1.68,1.68,0,0,1,0,3.37Zm0-6.12h-30a1.68,1.68,0,1,1,0-3.37h30a1.68,1.68,0,0,1,0,3.37Zm0-6.12h-30a1.68,1.68,0,0,1,0-3.37h30a1.68,1.68,0,1,1,0,3.37Z"/></g></g></svg>