<svg xmlns="http://www.w3.org/2000/svg" viewBox="0 0 1024 1024"><defs><style>.cls-1{fill:#ffdc00;}.cls-2{fill:#fff;}</style></defs><title>Asset 3</title><g id="Layer_2" data-name="Layer 2"><g id="Layer_1-2" data-name="Layer 1"><rect class="cls-1" width="1024" height="1024"/><path class="cls-2" d="M769.26,327.68H252.51c-15,0-27.55,11.86-29.26,27.57L184.36,712.77c-.67,6.17,6.68,9.46,10.41,4.66l52.09-67.16a28.86,28.86,0,0,1,22.78-11.39H733.93c14.58,0,27-11.27,29.12-26.5l35.34-249C801.06,344.6,787.27,327.68,769.26,327.68ZM678.65,577.21H310.92a20.64,20.64,0,0,1,0-41.28H678.65a20.64,20.64,0,0,1,0,41.28Zm0-75H310.92a20.64,20.64,0,0,1,0-41.28H678.65a20.64,20.64,0,0,1,0,41.28Zm0-75H310.92a20.64,20.64,0,0,1,0-41.28H678.65a20.64,20.64,0,0,1,0,41.28Z"/></g></g></svg>