<svg xmlns="http://www.w3.org/2000/svg" viewBox="0 0 20 20"><defs><style>.cls-1{fill:#ffdc00;}.cls-2{fill:#fff;}</style></defs><title>Asset 3</title><g id="Layer_2" data-name="Layer 2"><g id="Layer_1-2" data-name="Layer 1"><rect class="cls-1" width="20" height="20"/><path class="cls-2" d="M15,6.4H4.93a.59.59,0,0,0-.57.54l-.76,7a.11.11,0,0,0,.2.09l1-1.31a.56.56,0,0,1,.44-.22h9.07A.59.59,0,0,0,14.9,12l.69-4.86A.6.6,0,0,0,15,6.4Zm-1.77,4.87H6.07a.4.4,0,1,1,0-.81h7.18a.4.4,0,1,1,0,.81Zm0-1.47H6.07a.4.4,0,0,1,0-.81h7.18a.4.4,0,1,1,0,.81Zm0-1.47H6.07a.4.4,0,1,1,0-.81h7.18a.4.4,0,1,1,0,.81Z"/></g></g></svg>