<svg xmlns="http://www.w3.org/2000/svg" viewBox="0 0 40 40"><defs><style>.cls-1{fill:#ffdc00;}.cls-2{fill:#fff;}</style></defs><title>Asset 3</title><g id="Layer_2" data-name="Layer 2"><g id="Layer_1-2" data-name="Layer 1"><rect class="cls-1" width="40" height="40"/><path class="cls-2" d="M30,12.8H9.86a1.18,1.18,0,0,0-1.14,1.08l-1.52,14a.23.23,0,0,0,.41.18l2-2.62a1.13,1.13,0,0,1,.89-.45H28.67a1.17,1.17,0,0,0,1.14-1l1.38-9.72A1.2,1.2,0,0,0,30,12.8Zm-3.54,9.75H12.15a.81.81,0,1,1,0-1.61H26.51a.81.81,0,1,1,0,1.61Zm0-2.93H12.15a.81.81,0,0,1,0-1.61H26.51a.81.81,0,1,1,0,1.61Zm0-2.93H12.15a.81.81,0,0,1,0-1.61H26.51a.81.81,0,0,1,0,1.61Z"/></g></g></svg>