<svg xmlns="http://www.w3.org/2000/svg" viewBox="0 0 29 29"><defs><style>.cls-1{fill:#ffdc00;}.cls-2{fill:#fff;}</style></defs><title>Asset 3</title><g id="Layer_2" data-name="Layer 2"><g id="Layer_1-2" data-name="Layer 1"><rect class="cls-1" width="29" height="29"/><path class="cls-2" d="M21.79,9.28H7.15a.85.85,0,0,0-.83.78L5.22,20.19a.17.17,0,0,0,.29.13L7,18.42a.82.82,0,0,1,.65-.32H20.78a.85.85,0,0,0,.82-.75l1-7.05A.87.87,0,0,0,21.79,9.28Zm-2.57,7.07H8.81a.58.58,0,0,1,0-1.17H19.22a.58.58,0,0,1,0,1.17Zm0-2.13H8.81a.58.58,0,0,1,0-1.17H19.22a.58.58,0,0,1,0,1.17Zm0-2.13H8.81a.58.58,0,1,1,0-1.17H19.22a.58.58,0,0,1,0,1.17Z"/></g></g></svg>